<svg version="1.2" baseProfile="tiny-ps" xmlns="http://www.w3.org/2000/svg" viewBox="0 0 650 650" width="300" height="300">
	<title>logo-svg</title>
	<style>
		tspan { white-space:pre }
		.shp0 { fill: #000000 } 
		.shp1 { fill: #d5a982 } 
		.shp2 { fill: none } 
	</style>
	<g id="Color">
		<path id="Layer" class="shp0" d="M285.29 281.64L267.52 319.24L303.05 319.24L285.29 281.64L285.29 281.64Z" />
		<path id="Layer" class="shp0" d="M204.94 209.51L169.7 209.51L169.7 120.19L148.73 120.19L148.73 225.64L204.94 225.64L204.94 209.51L204.94 209.51Z" />
		<path id="Layer" class="shp0" d="M271.4 209.51L236.16 209.51L236.16 120.19L215.19 120.19L215.19 225.64L271.4 225.64L271.4 209.51L271.4 209.51Z" />
		<path id="Layer" class="shp0" d="M322.55 226.69C324.43 226.72 326.31 226.64 328.18 226.45C330.05 226.25 331.9 225.95 333.74 225.54C335.57 225.12 337.38 224.6 339.15 223.97C340.92 223.33 342.65 222.6 344.33 221.76C345.93 220.93 347.45 219.99 348.9 218.92C350.35 217.86 351.72 216.69 352.99 215.42C354.26 214.15 355.43 212.78 356.49 211.33C357.56 209.88 358.5 208.36 359.33 206.76C362.94 200.04 364.75 191.8 364.75 182.04L364.75 120.19L344 120.19L344 182C344 190.27 342.19 196.47 338.57 200.6C334.95 204.73 329.76 206.8 323 206.82C316.16 206.82 310.93 204.75 307.32 200.62C303.71 196.49 301.89 190.28 301.88 182L301.88 120.19L281.06 120.19L281.06 182C281.06 196.67 284.83 207.77 292.36 215.31C299.89 222.85 309.96 226.64 322.55 226.69Z" />
		<path id="Layer" class="shp0" d="M392.73 173.29C394.03 173.93 395.33 174.54 396.65 175.13C397.97 175.73 399.3 176.29 400.64 176.83C401.98 177.37 403.33 177.89 404.69 178.38C406.05 178.87 407.41 179.34 408.79 179.78C413.84 181.48 417.81 182.97 420.68 184.26C421.36 184.56 422.02 184.89 422.66 185.26C423.3 185.62 423.93 186.03 424.53 186.46C425.13 186.89 425.7 187.36 426.25 187.85C426.8 188.35 427.33 188.87 427.82 189.42C428.3 189.98 428.72 190.58 429.08 191.22C429.45 191.86 429.75 192.53 429.99 193.23C430.23 193.92 430.41 194.64 430.52 195.36C430.63 196.09 430.67 196.83 430.64 197.56C430.67 198.39 430.61 199.21 430.47 200.03C430.34 200.85 430.12 201.65 429.82 202.42C429.52 203.19 429.14 203.93 428.69 204.62C428.25 205.32 427.73 205.97 427.15 206.56C424.82 208.9 421.49 210.07 417.15 210.07C412.29 210.07 408.4 208.65 405.48 205.81C404.76 205.11 404.09 204.34 403.5 203.53C402.91 202.71 402.4 201.84 401.96 200.93C401.52 200.02 401.17 199.07 400.9 198.1C400.63 197.13 400.44 196.13 400.35 195.13L378 195.13C378.09 196.63 378.29 198.12 378.59 199.59C378.89 201.06 379.3 202.51 379.8 203.92C380.31 205.34 380.92 206.71 381.62 208.04C382.32 209.37 383.12 210.65 384 211.86C384.9 213.07 385.87 214.22 386.93 215.29C387.98 216.37 389.1 217.38 390.28 218.31C391.47 219.23 392.72 220.08 394.01 220.84C395.31 221.61 396.66 222.28 398.05 222.86C399.62 223.52 401.23 224.09 402.86 224.59C404.49 225.08 406.15 225.49 407.83 225.81C409.5 226.13 411.19 226.36 412.89 226.51C414.59 226.66 416.29 226.72 418 226.69C425.54 226.69 431.93 225.32 437.18 222.58C439.58 221.41 441.8 219.91 443.78 218.12C445.76 216.34 447.48 214.28 448.88 212.01C450.28 209.74 451.35 207.28 452.06 204.71C452.78 202.14 453.12 199.48 453.09 196.81C453.09 190.04 451.6 184.57 448.63 180.38C447.95 179.39 447.2 178.44 446.4 177.55C445.59 176.65 444.74 175.8 443.83 175.01C442.92 174.22 441.96 173.49 440.96 172.82C439.97 172.15 438.93 171.54 437.85 171C436.51 170.36 435.17 169.74 433.82 169.14C432.46 168.54 431.1 167.96 429.73 167.4C428.36 166.84 426.98 166.3 425.6 165.78C424.21 165.26 422.82 164.76 421.42 164.28C420.44 163.97 419.47 163.65 418.5 163.31C417.53 162.98 416.56 162.63 415.6 162.27C414.64 161.91 413.69 161.53 412.74 161.15C411.79 160.76 410.84 160.36 409.9 159.95C409.24 159.66 408.59 159.33 407.97 158.97C407.34 158.62 406.73 158.23 406.14 157.81C405.56 157.39 404.99 156.94 404.45 156.46C403.91 155.98 403.39 155.48 402.9 154.95C402.44 154.43 402.03 153.86 401.68 153.26C401.32 152.66 401.03 152.02 400.79 151.37C400.56 150.71 400.38 150.03 400.28 149.34C400.17 148.65 400.13 147.96 400.15 147.26C400.15 143.38 401.34 140.42 403.72 138.37C404.37 137.84 405.07 137.38 405.81 136.98C406.55 136.57 407.33 136.24 408.12 135.98C408.92 135.72 409.74 135.53 410.58 135.42C411.41 135.31 412.25 135.27 413.09 135.31C417.55 135.31 421.07 136.53 423.64 138.97C424.29 139.58 424.88 140.25 425.41 140.97C425.94 141.68 426.41 142.44 426.82 143.23C427.22 144.03 427.56 144.85 427.82 145.7C428.09 146.56 428.28 147.43 428.4 148.31L451 148.31C450.11 139.34 446.37 132.17 439.78 126.8C433.19 121.43 424.35 118.74 413.24 118.73C402.53 118.73 393.93 121.34 387.44 126.57C380.95 131.8 377.71 138.94 377.71 148C377.71 154.57 379.17 159.91 382.1 164C382.78 164.97 383.52 165.9 384.32 166.79C385.11 167.67 385.96 168.5 386.85 169.29C387.75 170.07 388.69 170.8 389.67 171.47C390.65 172.13 391.67 172.74 392.73 173.29L392.73 173.29Z" />
		<path id="Layer" class="shp0" d="M89.41 388.59L110.37 388.59L110.37 299.86L139.37 299.86L139.37 283.13L60.56 283.13L60.56 299.86L89.41 299.86L89.41 388.59L89.41 388.59Z" />
		<path id="Layer" fill-rule="evenodd" class="shp0" d="M169.73 388.59L148.73 388.59L148.73 283.11L188.73 283.11C200.92 283.14 210.22 286.14 216.61 292.11C223 298.08 226.2 305.95 226.2 315.71C226.2 323.66 223.99 330.33 219.58 335.71C215.17 341.09 208.8 344.68 200.48 346.47L226.64 388.59L203.45 388.59L178.92 347.51L169.7 347.51L169.73 388.59ZM169.7 333L186.94 333C198.94 333 204.94 327.67 204.94 317C204.94 311.95 203.48 308.01 200.55 305.17C197.62 302.33 193.09 300.91 186.94 300.91L169.7 300.91L169.7 333Z" />
		<path id="Layer" class="shp0" d="M411.91 283.13L333.1 283.13L333.1 299.86L361.95 299.86L361.95 388.59L382.91 388.59L382.91 299.86L411.91 299.86L411.91 283.13L411.91 283.13Z" />
		<path id="Layer" class="shp0" d="M421.28 388.59L483.87 388.59L483.87 371.71L442.24 371.71L442.24 343.33L479.41 343.33L479.41 327.2L442.24 327.2L442.24 299.86L483.87 299.86L483.87 283.13L421.28 283.13L421.28 388.59L421.28 388.59Z" />
		<path id="Layer" fill-rule="evenodd" class="shp0" d="M589.48 335.71C589.48 346.14 587.3 355.35 582.94 363.35C581.86 365.32 580.64 367.21 579.28 369.01C577.92 370.8 576.43 372.49 574.82 374.06C573.22 375.63 571.5 377.08 569.67 378.4C567.85 379.72 565.94 380.9 563.94 381.94C555.66 386.37 545.82 388.59 534.43 388.59L497.1 388.59L497.1 283.14L534.39 283.14C545.78 283.13 555.62 285.3 563.9 289.63C565.89 290.64 567.81 291.8 569.63 293.1C571.45 294.4 573.17 295.83 574.78 297.39C576.39 298.94 577.88 300.61 579.24 302.39C580.6 304.17 581.82 306.04 582.9 308C587.29 316.05 589.48 325.28 589.48 335.71ZM558.88 360.81C565.08 354.84 568.18 346.48 568.18 335.75C568.14 324.92 565.04 316.51 558.88 310.51C552.72 304.51 543.97 301.51 532.64 301.51L518.07 301.51L518.07 369.81L532.66 369.81C543.97 369.81 552.71 366.81 558.9 360.81L558.88 360.81Z" />
		<path id="Layer" fill-rule="evenodd" class="shp0" d="M137.8 454.75C139.08 455.81 140.29 456.97 141.41 458.2C142.54 459.44 143.57 460.76 144.5 462.14C145.44 463.53 146.27 464.98 147 466.48C150.23 472.85 151.85 480.32 151.84 488.89C151.83 497.46 150.22 504.9 147 511.22C146.27 512.72 145.43 514.16 144.5 515.54C143.56 516.91 142.53 518.22 141.41 519.45C140.28 520.68 139.07 521.83 137.79 522.89C136.5 523.95 135.14 524.92 133.72 525.78C132.27 526.64 130.75 527.39 129.2 528.04C127.64 528.69 126.04 529.23 124.41 529.66C122.77 530.08 121.11 530.4 119.44 530.6C117.76 530.8 116.08 530.89 114.39 530.86C106.46 530.83 99.74 528.81 94.24 524.81C92.9 523.84 91.63 522.76 90.46 521.58C89.29 520.4 88.22 519.13 87.25 517.78C86.29 516.43 85.43 515.01 84.7 513.52C83.96 512.03 83.35 510.49 82.86 508.9L82.86 529.81L69.33 529.81L69.33 419.28L82.86 419.28L82.86 468.67C83.35 467.08 83.96 465.54 84.7 464.05C85.43 462.56 86.29 461.14 87.26 459.79C88.22 458.44 89.29 457.17 90.46 455.99C91.63 454.81 92.9 453.73 94.24 452.76C99.73 448.76 106.45 446.76 114.39 446.76C116.08 446.73 117.76 446.82 119.44 447.02C121.11 447.22 122.77 447.54 124.41 447.97C126.04 448.4 127.64 448.94 129.2 449.58C130.75 450.23 132.27 450.99 133.72 451.84C135.15 452.71 136.51 453.68 137.8 454.75ZM130.67 510.92C135.68 505.59 138.18 498.24 138.18 488.87C138.19 479.54 135.68 472.2 130.67 466.87C125.66 461.54 118.94 458.87 110.52 458.87C109.28 458.85 108.04 458.92 106.8 459.07C105.57 459.21 104.35 459.44 103.14 459.75C101.94 460.06 100.76 460.45 99.6 460.91C98.45 461.38 97.33 461.92 96.25 462.53C95.18 463.14 94.16 463.82 93.2 464.58C92.23 465.34 91.32 466.17 90.47 467.06C89.63 467.95 88.85 468.9 88.14 469.9C87.44 470.91 86.8 471.96 86.25 473.06C85.64 474.28 85.1 475.54 84.64 476.83C84.19 478.12 83.81 479.43 83.51 480.76C83.21 482.1 82.99 483.45 82.85 484.81C82.72 486.17 82.66 487.53 82.69 488.9C82.66 490.26 82.71 491.62 82.85 492.97C82.99 494.33 83.2 495.67 83.5 497C83.8 498.33 84.18 499.63 84.64 500.91C85.1 502.19 85.64 503.44 86.25 504.66C86.81 505.75 87.45 506.8 88.16 507.8C88.87 508.8 89.65 509.75 90.49 510.64C91.34 511.53 92.25 512.36 93.21 513.12C94.17 513.88 95.19 514.57 96.25 515.19C97.33 515.81 98.45 516.36 99.6 516.84C100.75 517.31 101.93 517.71 103.13 518.02C104.34 518.33 105.56 518.57 106.8 518.72C108.03 518.87 109.28 518.94 110.52 518.92C118.95 518.92 125.66 516.25 130.67 510.92Z" />
		<path id="Layer" class="shp0" d="M199.43 512.34L172.97 447.81L157.8 447.81L192.15 528.47L175.2 568.65L190.51 568.65L238.99 447.81L223.97 447.81L199.43 512.34L199.43 512.34Z" />
		<path id="Layer" class="shp0" d="M269.69 515C267.75 513.06 266.78 509.45 266.79 504.17L266.79 459.61L287.9 459.61L287.9 447.81L266.79 447.81L266.79 427.35L253.11 427.35L253.11 447.81L240.92 447.81L240.92 459.61L253.11 459.61L253.11 503.82C253.11 513.19 255.17 519.85 259.28 523.82C263.39 527.79 269.61 529.79 277.94 529.82L288.05 529.82L288.05 517.86L279.72 517.86C274.97 517.86 271.63 516.91 269.69 515Z" />
		<path id="Layer" fill-rule="evenodd" class="shp0" d="M363.25 454.5C364.54 455.49 365.76 456.55 366.89 457.7C368.03 458.85 369.09 460.08 370.06 461.38C371.03 462.67 371.91 464.03 372.69 465.45C373.47 466.89 374.16 468.37 374.75 469.89C375.35 471.41 375.84 472.97 376.24 474.56C376.63 476.15 376.92 477.76 377.11 479.38C377.3 481 377.39 482.64 377.37 484.27C377.38 484.89 377.37 485.52 377.35 486.14C377.33 486.77 377.29 487.39 377.24 488.01C377.19 488.64 377.13 489.26 377.05 489.88C376.97 490.5 376.88 491.11 376.77 491.73L311.5 491.73C311.83 501.11 314.49 508.13 319.5 512.8C320.73 513.95 322.06 514.98 323.49 515.87C324.91 516.76 326.42 517.51 327.99 518.11C329.56 518.71 331.19 519.15 332.84 519.44C334.5 519.72 336.18 519.84 337.86 519.8C344.4 519.8 349.88 518.13 354.29 514.8C355.36 514 356.36 513.1 357.26 512.12C358.16 511.13 358.96 510.05 359.65 508.91C360.34 507.77 360.92 506.56 361.38 505.3C361.84 504.05 362.18 502.75 362.39 501.43L376.81 501.43C376.35 504.22 375.54 506.94 374.41 509.53C373.28 512.12 371.83 514.56 370.1 516.8C368.37 519.03 366.37 521.05 364.14 522.79C361.91 524.53 359.48 525.99 356.89 527.13C355.44 527.77 353.96 528.33 352.46 528.81C350.95 529.28 349.42 529.68 347.87 529.99C346.32 530.31 344.76 530.54 343.18 530.68C341.61 530.83 340.03 530.89 338.45 530.86C336.64 530.9 334.84 530.81 333.04 530.62C331.25 530.42 329.47 530.1 327.71 529.68C325.96 529.25 324.23 528.71 322.55 528.05C320.87 527.4 319.23 526.64 317.64 525.78C316.14 524.94 314.7 524 313.34 522.95C311.97 521.9 310.68 520.76 309.48 519.53C308.28 518.3 307.17 516.98 306.16 515.59C305.15 514.2 304.24 512.74 303.44 511.22C300.02 504.9 298.31 497.46 298.31 488.89C298.31 480.32 300.02 472.85 303.44 466.48C304.24 464.95 305.14 463.48 306.15 462.08C307.16 460.69 308.27 459.36 309.47 458.13C310.67 456.89 311.96 455.74 313.33 454.69C314.7 453.63 316.14 452.68 317.64 451.84C319.23 450.98 320.87 450.22 322.55 449.57C324.24 448.92 325.96 448.38 327.71 447.95C329.47 447.52 331.25 447.21 333.04 447.01C334.84 446.81 336.64 446.73 338.45 446.76C340.25 446.72 342.05 446.79 343.84 446.99C345.64 447.18 347.41 447.5 349.16 447.92C350.91 448.35 352.63 448.9 354.31 449.55C355.99 450.21 357.62 450.97 359.2 451.84C360.61 452.63 361.96 453.52 363.25 454.5ZM363.76 485.16C364.04 479.09 363.04 474.01 360.76 469.93C360.23 468.96 359.63 468.02 358.97 467.14C358.3 466.26 357.57 465.43 356.77 464.66C355.98 463.89 355.13 463.18 354.23 462.53C353.33 461.89 352.38 461.32 351.39 460.82C350.39 460.32 349.36 459.88 348.31 459.5C347.26 459.12 346.19 458.8 345.1 458.55C344.01 458.3 342.91 458.11 341.8 457.99C340.68 457.87 339.57 457.81 338.45 457.82C331.02 457.81 324.77 460.13 319.72 464.76C314.67 469.39 311.94 476.19 311.54 485.15L363.76 485.16Z" />
		<path id="Layer" class="shp0" d="M438.15 488.51C436.96 488.07 435.75 487.65 434.54 487.26C433.34 486.86 432.12 486.49 430.9 486.13C429.68 485.78 428.45 485.44 427.22 485.13C425.98 484.82 424.74 484.53 423.5 484.26C422.55 484.05 421.61 483.83 420.67 483.6C419.72 483.37 418.79 483.13 417.85 482.87C416.91 482.61 415.98 482.35 415.05 482.07C414.13 481.79 413.2 481.49 412.28 481.19C411.64 480.98 411.01 480.73 410.4 480.45C409.79 480.17 409.19 479.85 408.62 479.5C408.04 479.15 407.49 478.76 406.96 478.35C406.43 477.93 405.92 477.48 405.44 477.01C404.98 476.53 404.57 476.01 404.21 475.45C403.85 474.89 403.55 474.29 403.32 473.67C403.08 473.05 402.91 472.41 402.81 471.75C402.7 471.1 402.66 470.43 402.69 469.77C402.65 468.88 402.71 467.99 402.87 467.11C403.03 466.23 403.29 465.38 403.65 464.56C404 463.74 404.44 462.96 404.97 462.24C405.5 461.52 406.11 460.86 406.78 460.28C409.5 457.94 413.29 456.77 418.15 456.77C423.9 456.77 428.49 458.34 431.9 461.48C432.74 462.25 433.51 463.1 434.2 464.02C434.89 464.93 435.49 465.91 436 466.93C436.52 467.95 436.93 469.02 437.25 470.12C437.57 471.22 437.79 472.34 437.9 473.48L450.83 473.48C449.64 465.32 446.24 458.82 440.64 453.99C435.04 449.16 427.63 446.74 418.42 446.74C409.69 446.74 402.8 448.86 397.75 453.09C396.53 454.09 395.42 455.23 394.45 456.48C393.49 457.74 392.67 459.1 392.02 460.54C391.36 461.98 390.87 463.49 390.56 465.04C390.25 466.59 390.12 468.17 390.17 469.75C390.17 474.93 391.43 479.04 393.96 482.07C394.57 482.81 395.22 483.51 395.92 484.17C396.62 484.82 397.36 485.43 398.14 486C398.91 486.56 399.73 487.07 400.57 487.52C401.41 487.98 402.29 488.38 403.18 488.72C404.36 489.15 405.55 489.56 406.75 489.95C407.94 490.34 409.15 490.71 410.35 491.06C411.56 491.4 412.78 491.73 414 492.04C415.22 492.35 416.44 492.63 417.67 492.9C418.64 493.11 419.6 493.33 420.57 493.56C421.53 493.79 422.49 494.04 423.44 494.3C424.4 494.56 425.35 494.84 426.29 495.13C427.24 495.42 428.18 495.72 429.12 496.04C429.77 496.26 430.42 496.52 431.04 496.82C431.67 497.11 432.28 497.44 432.87 497.81C433.45 498.17 434.02 498.57 434.56 499C435.11 499.43 435.63 499.88 436.12 500.37C436.61 500.87 437.04 501.43 437.41 502.02C437.79 502.61 438.1 503.23 438.34 503.89C438.59 504.54 438.77 505.22 438.88 505.91C438.99 506.6 439.03 507.3 439 508C439.03 508.88 438.97 509.76 438.81 510.62C438.65 511.48 438.4 512.33 438.07 513.14C437.73 513.95 437.3 514.72 436.79 515.44C436.29 516.16 435.71 516.82 435.06 517.41C432.41 519.8 428.76 521 424.1 521C417.85 521 412.82 519.46 409 516.37C408.08 515.64 407.23 514.82 406.47 513.92C405.72 513.01 405.06 512.03 404.51 511C403.95 509.96 403.51 508.86 403.17 507.73C402.84 506.6 402.63 505.44 402.54 504.27L389.45 504.27C390.54 512.64 394.16 519.17 400.31 523.84C406.46 528.51 414.39 530.85 424.1 530.84C432.42 530.84 439.09 528.75 444.1 524.57C445.3 523.6 446.39 522.49 447.34 521.26C448.29 520.04 449.1 518.71 449.75 517.31C450.4 515.9 450.88 514.42 451.19 512.9C451.51 511.39 451.64 509.84 451.6 508.29C451.6 502.91 450.29 498.63 447.66 495.44C447.04 494.67 446.36 493.94 445.64 493.26C444.92 492.57 444.16 491.94 443.36 491.35C442.56 490.77 441.72 490.24 440.85 489.76C439.98 489.29 439.07 488.87 438.15 488.51Z" />
		<path id="Layer" class="shp0" d="M130.47 209L109.93 209L109.93 136.83L130.47 136.83L130.47 120.19L68.41 120.19L68.41 136.83L88.96 136.83L88.96 209L68.41 209L68.41 225.64L130.47 225.64L130.47 209L130.47 209Z" />
		<path id="Layer" fill-rule="evenodd" class="shp0" d="M650 0L650 650L0 650L0 0L650 0ZM636.47 13.53L13.53 13.53L13.53 636.47L636.47 636.47L636.47 13.53Z" />
		<path id="Layer" class="shp0" d="M518.55 158.39L547.02 158.39L547.02 186.99L518.55 186.99L518.55 158.39Z" />
		<path id="Layer" class="shp1" d="M234.74 388.59L335.84 388.59L306.82 327.2L263.75 327.2L234.74 388.59L234.74 388.59Z" />
	</g>
	<path id="Layer" class="shp2" d="M-175 -175L825 -175L825 825L-175 825L-175 -175Z" />
</svg>